<mxfile host="app.diagrams.net" modified="2023-04-19T00:55:47.880Z" agent="Mozilla/5.0 (Windows NT 10.0; Win64; x64) AppleWebKit/537.36 (KHTML, like Gecko) Chrome/93.0.4577.63 Safari/537.36 Edg/93.0.961.47" etag="DXBhQcb-isb2eaGfUA_x" version="21.1.8" type="github">
  <diagram name="第 1 页" id="YOORIyZYhkJus8q4-mJh">
    <mxGraphModel dx="1348" dy="571" grid="1" gridSize="10" guides="1" tooltips="1" connect="1" arrows="1" fold="1" page="1" pageScale="1" pageWidth="827" pageHeight="1169" math="0" shadow="0">
      <root>
        <mxCell id="0" />
        <mxCell id="1" parent="0" />
        <mxCell id="5-6-TgPeuKeOGbFLSTB_-6" style="edgeStyle=orthogonalEdgeStyle;rounded=0;orthogonalLoop=1;jettySize=auto;html=1;exitX=0.5;exitY=1;exitDx=0;exitDy=0;" edge="1" parent="1" source="5-6-TgPeuKeOGbFLSTB_-1" target="5-6-TgPeuKeOGbFLSTB_-2">
          <mxGeometry relative="1" as="geometry" />
        </mxCell>
        <mxCell id="5-6-TgPeuKeOGbFLSTB_-1" value="开始" style="rounded=1;whiteSpace=wrap;html=1;" vertex="1" parent="1">
          <mxGeometry y="100" width="120" height="60" as="geometry" />
        </mxCell>
        <mxCell id="5-6-TgPeuKeOGbFLSTB_-7" style="edgeStyle=orthogonalEdgeStyle;rounded=0;orthogonalLoop=1;jettySize=auto;html=1;exitX=0.5;exitY=1;exitDx=0;exitDy=0;" edge="1" parent="1" source="5-6-TgPeuKeOGbFLSTB_-2" target="5-6-TgPeuKeOGbFLSTB_-3">
          <mxGeometry relative="1" as="geometry" />
        </mxCell>
        <mxCell id="5-6-TgPeuKeOGbFLSTB_-2" value="用户点击“导入FSCtd文件”" style="rounded=0;whiteSpace=wrap;html=1;" vertex="1" parent="1">
          <mxGeometry x="-25" y="200" width="170" height="40" as="geometry" />
        </mxCell>
        <mxCell id="5-6-TgPeuKeOGbFLSTB_-8" style="edgeStyle=orthogonalEdgeStyle;rounded=0;orthogonalLoop=1;jettySize=auto;html=1;exitX=0.5;exitY=1;exitDx=0;exitDy=0;" edge="1" parent="1" source="5-6-TgPeuKeOGbFLSTB_-3" target="5-6-TgPeuKeOGbFLSTB_-4">
          <mxGeometry relative="1" as="geometry" />
        </mxCell>
        <mxCell id="5-6-TgPeuKeOGbFLSTB_-3" value="选择目标FSCtd模型文件" style="rounded=0;whiteSpace=wrap;html=1;" vertex="1" parent="1">
          <mxGeometry x="-30" y="270" width="180" height="30" as="geometry" />
        </mxCell>
        <mxCell id="5-6-TgPeuKeOGbFLSTB_-9" style="edgeStyle=orthogonalEdgeStyle;rounded=0;orthogonalLoop=1;jettySize=auto;html=1;entryX=0.5;entryY=0;entryDx=0;entryDy=0;" edge="1" parent="1" source="5-6-TgPeuKeOGbFLSTB_-4" target="5-6-TgPeuKeOGbFLSTB_-5">
          <mxGeometry relative="1" as="geometry" />
        </mxCell>
        <mxCell id="5-6-TgPeuKeOGbFLSTB_-4" value="数据读取、模型重建" style="rounded=0;whiteSpace=wrap;html=1;" vertex="1" parent="1">
          <mxGeometry x="-30" y="330" width="180" height="30" as="geometry" />
        </mxCell>
        <mxCell id="5-6-TgPeuKeOGbFLSTB_-11" style="edgeStyle=orthogonalEdgeStyle;rounded=0;orthogonalLoop=1;jettySize=auto;html=1;entryX=0.5;entryY=0;entryDx=0;entryDy=0;" edge="1" parent="1" source="5-6-TgPeuKeOGbFLSTB_-5" target="5-6-TgPeuKeOGbFLSTB_-10">
          <mxGeometry relative="1" as="geometry" />
        </mxCell>
        <mxCell id="5-6-TgPeuKeOGbFLSTB_-5" value="另存为“HPM”文件" style="rounded=0;whiteSpace=wrap;html=1;" vertex="1" parent="1">
          <mxGeometry x="-35" y="400" width="190" height="30" as="geometry" />
        </mxCell>
        <mxCell id="5-6-TgPeuKeOGbFLSTB_-10" value="结束" style="rounded=1;whiteSpace=wrap;html=1;" vertex="1" parent="1">
          <mxGeometry y="480" width="120" height="60" as="geometry" />
        </mxCell>
      </root>
    </mxGraphModel>
  </diagram>
</mxfile>
